<svg xmlns="http://www.w3.org/2000/svg" viewBox="0 0 24 24" fill="none">
  <path d="M6.76 10.89c0 .38.04.68.13.93.09.24.21.48.38.73.06.09.09.17.09.24 0 .11-.07.21-.2.32l-.67.44c-.09.06-.19.09-.28.09-.11 0-.21-.05-.32-.16a3.27 3.27 0 0 1-.38-.5 8.23 8.23 0 0 1-.33-.62c-.83.98-1.87 1.47-3.13 1.47-.9 0-1.61-.26-2.14-.77-.53-.52-.79-1.21-.79-2.08 0-.92.33-1.66.98-2.23.66-.57 1.53-.85 2.62-.85.36 0 .74.03 1.13.08.4.06.8.14 1.23.24v-.79c0-.82-.17-1.4-.51-1.73-.34-.33-.91-.5-1.73-.5-.37 0-.75.04-1.14.13-.39.09-.77.2-1.14.33-.17.06-.29.1-.37.12-.08.02-.13.03-.17.03-.15 0-.22-.11-.22-.33v-.52c0-.17.02-.3.07-.38.05-.08.15-.16.3-.24.37-.19.81-.35 1.33-.48A6.5 6.5 0 0 1 3.34 4c1.01 0 1.75.23 2.23.68.47.46.71 1.15.71 2.08v2.74c0 .83.08 1.43.24 1.82.16.39.4.78.74 1.18.06.08.1.16.11.24 0 .09-.05.17-.16.25l-.68.44c-.1.07-.2.1-.29.1-.11 0-.23-.06-.35-.19-.17-.22-.31-.42-.43-.64-.12-.21-.26-.47-.42-.78zM3.2 12.44c.35 0 .72-.06 1.1-.19.39-.13.73-.37 1.03-.72.18-.22.32-.46.4-.74.08-.27.13-.6.13-.97v-.47c-.35-.08-.71-.14-1.09-.19-.38-.04-.75-.07-1.11-.07-.79 0-1.37.15-1.74.47-.37.31-.56.75-.56 1.32 0 .54.14.95.42 1.23.27.28.66.42 1.17.42v-.01zm9.06 1.2c-.19 0-.32-.03-.4-.1-.08-.07-.16-.21-.23-.43L9.44 5.3c-.07-.23-.11-.39-.11-.46 0-.19.09-.29.28-.29h1.14c.2 0 .33.03.4.1.08.07.14.21.21.43l1.63 6.42 1.52-6.42c.06-.23.13-.37.2-.43.08-.07.22-.1.41-.1h.93c.2 0 .33.03.41.1.08.07.15.21.21.43l1.54 6.5 1.67-6.5c.07-.23.14-.37.22-.43.08-.07.21-.1.4-.1h1.08c.19 0 .29.09.29.29 0 .06-.01.12-.03.19-.02.07-.06.18-.12.34l-2.32 7.82c-.07.23-.14.37-.23.43-.08.07-.22.1-.4.1h-1c-.2 0-.33-.03-.41-.1-.08-.07-.15-.21-.21-.44l-1.51-6.29-1.5 6.28c-.06.23-.13.37-.21.44-.08.07-.22.1-.41.1h-1.01zm14.53.31c-.59 0-1.18-.07-1.77-.2-.59-.14-1.05-.29-1.37-.46-.19-.1-.32-.21-.38-.32-.06-.11-.09-.23-.09-.35v-.54c0-.22.08-.33.25-.33.06 0 .13.01.19.03.06.02.16.06.28.11.39.17.82.31 1.27.41.46.1.92.15 1.38.15.73 0 1.3-.13 1.7-.38.4-.26.6-.62.6-1.09 0-.32-.1-.59-.31-.81-.21-.22-.6-.42-1.17-.61l-1.68-.52c-.85-.27-1.47-.66-1.88-1.18-.4-.52-.6-1.09-.6-1.72 0-.5.11-.94.32-1.33.21-.39.5-.73.86-1.01.36-.28.78-.49 1.27-.64.49-.15 1.01-.22 1.58-.22.26 0 .52.01.79.04.27.03.52.07.77.12.24.05.47.11.69.17.22.07.4.13.54.2.16.08.28.17.35.27.07.1.11.24.11.41v.51c0 .22-.08.33-.25.33-.09 0-.24-.05-.43-.14-.65-.3-1.38-.45-2.19-.45-.66 0-1.19.11-1.56.34-.38.23-.56.56-.56 1.01 0 .32.11.59.33.82.22.23.64.44 1.24.64l1.65.52c.84.27 1.45.64 1.84 1.13.39.49.58 1.05.58 1.68 0 .51-.11.98-.32 1.39-.21.41-.51.77-.89 1.07-.38.3-.84.53-1.37.69-.52.16-1.09.24-1.71.24z" fill="#FF9900"/>
</svg>
