<svg xmlns="http://www.w3.org/2000/svg" viewBox="0 0 24 24" fill="none">
  <path d="M16.405 5.501c-.115 0-.193.014-.274.033v.013h.014c.054.104.146.18.214.273.054.107.1.214.154.32l.014-.015c.094-.066.14-.172.14-.333-.04-.047-.046-.094-.08-.14-.04-.067-.126-.1-.18-.153zM5.77 18.695h-.927a50.854 50.854 0 00-.27-4.41h-.008l-1.41 4.41H2.45l-1.4-4.41h-.01a72.892 72.892 0 00-.195 4.41H0c.055-1.966.192-3.81.41-5.53h1.15l1.335 4.064h.008l1.347-4.064h1.095c.242 2.015.384 3.86.428 5.53zm4.017-4.08c-.378 2.045-.876 3.533-1.492 4.46-.482.716-1.01 1.073-1.583 1.073-.153 0-.34-.046-.566-.138v-.494c.11.017.24.026.386.026.268 0 .483-.075.647-.222.197-.18.295-.382.295-.605 0-.155-.077-.397-.23-.733L6.23 14.615h.91l.727 2.36c.164.536.233.91.205 1.123.4-1.064.678-2.227.835-3.483h.88zm12.325 4.08h-2.63v-5.53h.885v4.85h1.745v.68zm-3.32.135l-1.016-.5c.09-.076.177-.158.254-.244.433-.506.648-1.258.648-2.253 0-1.83-.718-2.746-2.155-2.746-.704 0-1.254.232-1.65.697-.43.508-.646 1.256-.646 2.245 0 .972.19 1.686.574 2.14.35.41.877.615 1.583.615.264 0 .506-.033.725-.098l1.325.772.36-.628zM15.5 17.588c-.225-.36-.337-.94-.337-1.736 0-1.393.424-2.09 1.27-2.09.443 0 .77.167.977.5.224.362.336.948.336 1.758 0 1.297-.39 1.946-1.168 1.946-.557 0-.931-.26-1.077-.78v.002zm-7.364-.885c.202.144.494.216.877.216.178 0 .36-.02.54-.06v.544c-.205.055-.467.082-.785.082-.598 0-1.048-.182-1.348-.545-.295-.355-.442-.943-.442-1.763 0-.83.182-1.473.543-1.93.357-.448.86-.673 1.512-.673.267 0 .518.02.756.06v.622a2.376 2.376 0 00-.723-.105c-.454 0-.804.142-1.05.424-.236.27-.354.684-.354 1.244 0 .546.107.96.322 1.243.215.283.51.424.884.424.16 0 .33-.01.51-.03v-1.544h-.883v-.538h1.67v2.42c-.305.096-.658.145-1.06.145-.59 0-1.04-.167-1.343-.5-.295-.342-.442-.956-.442-1.84 0-.843.18-1.494.543-1.953.357-.453.86-.68 1.512-.68.267 0 .518.02.756.06v.624a2.376 2.376 0 00-.723-.105c-.454 0-.804.143-1.05.426-.236.27-.354.684-.354 1.244 0 .546.107.96.322 1.243.215.283.51.424.884.424.16 0 .33-.01.51-.03v-1.544h-.883v-.538h1.67v2.42c-.305.096-.658.145-1.06.145-.59 0-1.04-.167-1.343-.5z" fill="#00758F"/>
  <path d="M23.693 16.878c-.012-.188-.068-.33-.17-.43-.1-.097-.265-.146-.492-.146-.223 0-.4.05-.527.152-.13.1-.197.24-.197.414 0 .14.04.254.118.34.078.087.217.17.415.252l.805.32c.357.142.615.316.773.522.16.206.24.46.24.762 0 .435-.138.774-.415 1.017-.278.242-.67.363-1.177.363-.51 0-.912-.12-1.205-.36-.293-.24-.445-.584-.455-1.03h.65c.014.246.09.43.228.55.138.118.343.177.615.177.254 0 .448-.057.583-.17.135-.114.203-.27.203-.468 0-.152-.052-.28-.156-.383-.103-.103-.282-.203-.537-.3l-.82-.32c-.323-.125-.56-.29-.713-.492-.15-.203-.226-.445-.226-.726 0-.393.126-.705.376-.936.25-.23.603-.346 1.06-.346.456 0 .81.103 1.062.308.25.205.388.508.412.91h-.65z" fill="#00758F"/>
</svg>
