<svg xmlns="http://www.w3.org/2000/svg" viewBox="0 0 64 64" fill="none">
  <!-- Background Circle -->
  <circle cx="32" cy="32" r="30" fill="#60a5fa" opacity="0.15"/>

  <!-- Main "R" Letter -->
  <path d="M 20 18 L 20 46 L 22 46 L 22 33 L 30 33 L 38 46 L 40.5 46 L 32 32.5 C 36 32 39 29 39 24 C 39 19 35 18 30 18 Z M 22 20 L 30 20 C 33.5 20 37 20.5 37 24 C 37 27.5 33.5 31 30 31 L 22 31 Z" fill="#60a5fa"/>

  <!-- Calendar Grid Icon (top right) -->
  <rect x="42" y="14" width="10" height="10" rx="1" stroke="#60a5fa" stroke-width="1.5" fill="none"/>
  <line x1="44" y1="16" x2="44" y2="14" stroke="#60a5fa" stroke-width="1.5" stroke-linecap="round"/>
  <line x1="50" y1="16" x2="50" y2="14" stroke="#60a5fa" stroke-width="1.5" stroke-linecap="round"/>
  <line x1="43" y1="18" x2="43" y2="18" stroke="#60a5fa" stroke-width="1.5" stroke-linecap="round"/>
  <line x1="47" y1="18" x2="47" y2="18" stroke="#60a5fa" stroke-width="1.5" stroke-linecap="round"/>
  <line x1="51" y1="18" x2="51" y2="18" stroke="#60a5fa" stroke-width="1.5" stroke-linecap="round"/>
  <line x1="43" y1="21" x2="43" y2="21" stroke="#60a5fa" stroke-width="1.5" stroke-linecap="round"/>
  <line x1="47" y1="21" x2="47" y2="21" stroke="#60a5fa" stroke-width="1.5" stroke-linecap="round"/>

  <!-- Upload Arrow Icon (bottom right) -->
  <g transform="translate(42, 36)">
    <path d="M 5 8 L 5 12 L 15 12 L 15 8" stroke="#60a5fa" stroke-width="1.5" fill="none" stroke-linecap="round" stroke-linejoin="round"/>
    <line x1="10" y1="2" x2="10" y2="10" stroke="#60a5fa" stroke-width="1.5" stroke-linecap="round"/>
    <polyline points="7,5 10,2 13,5" stroke="#60a5fa" stroke-width="1.5" fill="none" stroke-linecap="round" stroke-linejoin="round"/>
  </g>
</svg>
